<?xml version="1.0" encoding="utf-8"?>
<!-- Generator: Adobe Illustrator 23.0.3, SVG Export Plug-In . SVG Version: 6.00 Build 0)  -->
<svg version="1.1" id="Layer_1" xmlns="http://www.w3.org/2000/svg" xmlns:xlink="http://www.w3.org/1999/xlink" x="0px" y="0px"
	 viewBox="0 0 512 512" enable-background="new 0 0 512 512" xml:space="preserve">
	 <style type="text/css">
	.colorforicon{fill:#e57927;}
</style>
<g>
	<path class="colorforicon" d="M412,0H100C44.8,0,0,44.8,0,100v312c0,55.2,44.8,100,100,100h312c55.2,0,100-44.8,100-100V100C512,44.8,467.2,0,412,0z
		 M494,412c0,45.2-36.8,82-82,82H100c-45.2,0-82-36.8-82-82V100c0-45.2,36.8-82,82-82h312c45.2,0,82,36.8,82,82V412z"/>
	<polygon class="colorforicon" points="376,293.3 320.6,293.3 320.6,402.4 283.7,402.4 283.7,220.9 228.3,220.9 228.3,402.4 191.4,402.4 191.4,344.2 
		136,344.2 136,402.4 98.5,402.4 98.5,413.5 136,413.5 191.4,413.5 228.3,413.5 283.7,413.5 320.6,413.5 376,413.5 413.5,413.5 
		413.5,402.4 376,402.4 	"/>
	<path class="colorforicon" d="M397.4,98.5c-8.9,0-16.1,7.2-16.1,16.1c0,2.2,0.4,4.2,1.2,6.1l-59.5,54.8c-2.2-1.1-4.7-1.8-7.3-1.8c-3,0-5.9,0.8-8.3,2.3
		l-70-56.3c0.5-1.6,0.8-3.3,0.8-5.1c0-8.9-7.2-16.1-16.1-16.1c-8.9,0-16.1,7.2-16.1,16.1c0,2.2,0.4,4.2,1.2,6.1L122,198.5
		c-2.2-1.2-4.7-1.8-7.4-1.8c-8.9,0-16.1,7.2-16.1,16.1c0,8.9,7.2,16.1,16.1,16.1c8.9,0,16.1-7.2,16.1-16.1c0-2.2-0.4-4.2-1.2-6.1
		l85.3-77.9c2.2,1.2,4.7,1.8,7.4,1.8c3,0,5.9-0.8,8.3-2.3l70,56.3c-0.5,1.6-0.8,3.3-0.8,5.1c0,8.9,7.2,16.1,16.1,16.1
		c8.9,0,16.1-7.2,16.1-16.1c0-2.2-0.4-4.2-1.2-6.1l59.5-54.8c2.2,1.1,4.7,1.8,7.3,1.8c8.9,0,16.1-7.2,16.1-16.1
		S406.3,98.5,397.4,98.5z"/>
</g>
</svg>
