<?xml version="1.0" encoding="utf-8"?>
<!-- Generator: Adobe Illustrator 23.0.3, SVG Export Plug-In . SVG Version: 6.00 Build 0)  -->
<svg version="1.1" id="Layer_1" xmlns="http://www.w3.org/2000/svg" xmlns:xlink="http://www.w3.org/1999/xlink" x="0px" y="0px"
	 viewBox="0 0 512 512" enable-background="new 0 0 512 512" xml:space="preserve">
	 <style type="text/css">
	.colorforicon{fill:#e57927;}
</style>
<g>
	<path class="colorforicon" d="M412,0H100C44.8,0,0,44.8,0,100v312c0,55.2,44.8,100,100,100h312c55.2,0,100-44.8,100-100V100C512,44.8,467.2,0,412,0z
		 M494,412c0,45.2-36.8,82-82,82H100c-45.2,0-82-36.8-82-82V100c0-45.2,36.8-82,82-82h312c45.2,0,82,36.8,82,82V412z"/>
	<path class="colorforicon" d="M98.5,164.4V178v235.5h315v-315h-315V164.4z M112.1,112.1h287.7v52.2H112.1V112.1z M112.1,178h287.7v106.1h-19.8L347.9,262
		v-20.2h18.8c6.1,0,11.1-4.9,11.1-11.1v-25c0-6.1-4.9-11.1-11.1-11.1h-45.8c-6.1,0-11.1,4.9-11.1,11.1v25c0,6.1,4.9,11.1,11.1,11.1
		h19V262l-32.2,22.1h-25.8v-8.5c0-6.1-4.9-11.1-11.1-11.1h-45.8c-6.1,0-11.1,4.9-11.1,11.1v8.5h-24.3c-1.7-5.8-7.1-10-13.4-10
		c-7.7,0-14,6.3-14,14s6.3,14,14,14c6.3,0,11.7-4.2,13.4-10h24.3v8.5c0,6.1,4.9,11.1,11.1,11.1h45.8c6.1,0,11.1-4.9,11.1-11.1v-8.5
		h25.8l32.2,22.1v20.2h-19c-6.1,0-11.1,4.9-11.1,11.1v25c0,6.1,4.9,11.1,11.1,11.1h45.8c6.1,0,11.1-4.9,11.1-11.1v-25
		c0-6.1-4.9-11.1-11.1-11.1h-18.8v-20.2l32.2-22.1h19.8v107.8H112.1V178z M371.8,288.1l-27.9,19.1L316,288.1l27.9-19.1L371.8,288.1z
		 M320.9,233.8c-1.7,0-3.1-1.4-3.1-3.1v-25c0-1.7,1.4-3.1,3.1-3.1h45.8c1.7,0,3.1,1.4,3.1,3.1v25c0,1.7-1.4,3.1-3.1,3.1H320.9z
		 M274,275.6v25c0,1.7-1.4,3.1-3.1,3.1h-45.8c-1.7,0-3.1-1.4-3.1-3.1v-25c0-1.7,1.4-3.1,3.1-3.1h45.8
		C272.6,272.5,274,273.9,274,275.6z M366.7,342.3c1.7,0,3.1,1.4,3.1,3.1v25c0,1.7-1.4,3.1-3.1,3.1h-45.8c-1.7,0-3.1-1.4-3.1-3.1v-25
		c0-1.7,1.4-3.1,3.1-3.1H366.7z"/>
	<rect class="colorforicon" x="130.5" y="130.4" width="31.9" height="16"/>
</g>
</svg>
