<?xml version="1.0" encoding="utf-8"?>
<!-- Generator: Adobe Illustrator 23.0.3, SVG Export Plug-In . SVG Version: 6.00 Build 0)  -->
<svg version="1.1" id="Layer_1" xmlns="http://www.w3.org/2000/svg" xmlns:xlink="http://www.w3.org/1999/xlink" x="0px" y="0px"
	 viewBox="0 0 512 512" enable-background="new 0 0 512 512" xml:space="preserve">
<style type="text/css">
	.colorforicon{fill:#e57927;}
</style>
	 <g>
	<path class="colorforicon" d="M412,0H100C44.8,0,0,44.8,0,100v312c0,55.2,44.8,100,100,100h312c55.2,0,100-44.8,100-100V100C512,44.8,467.2,0,412,0z
		 M494,412c0,45.2-36.8,82-82,82H100c-45.2,0-82-36.8-82-82V100c0-45.2,36.8-82,82-82h312c45.2,0,82,36.8,82,82V412z"/>
	<path class="colorforicon" d="M306.1,98.5H98.5v270.7h107.4v44.3h207.6V142.8H306.1V98.5z M205.9,171.2v22.1h-60.9v11.1h60.9v22.1h-60.9v11.1h60.9v22.1
		h-60.9v11.1h60.9V294h-60.9v35.5h60.9v28.6h-96.4V109.6H280l-70.8,26.1h-64.2v35.5H205.9z M295,115.9v26.9h-73L295,115.9z
		 M402.4,153.9v248.6H217v-33.2v-11.1V153.9h78h11.1H402.4z"/>
	<rect class="colorforicon" x="252.5" y="338.3" width="114.4" height="35.5"/>
	<rect class="colorforicon" x="252.5" y="180" width="114.4" height="35.5"/>
	<rect class="colorforicon" x="252.5" y="237.7" width="114.4" height="11.1"/>
	<rect class="colorforicon" x="252.5" y="270.9" width="114.4" height="11.1"/>
	<rect class="colorforicon" x="252.5" y="304.1" width="114.4" height="11.1"/>
</g>
</svg>
